<?xml version="1.0" encoding="iso-8859-1"?>
<!-- Generator: Adobe Illustrator 18.0.0, SVG Export Plug-In . SVG Version: 6.00 Build 0)  -->
<!DOCTYPE svg PUBLIC "-//W3C//DTD SVG 1.1//EN" "http://www.w3.org/Graphics/SVG/1.1/DTD/svg11.dtd">
<svg version="1.1" id="Capa_1" xmlns="http://www.w3.org/2000/svg" xmlns:xlink="http://www.w3.org/1999/xlink" x="0px" y="0px"
	 viewBox="0 0 309.516 309.516" style="enable-background:new 0 0 309.516 309.516;" xml:space="preserve">
<g>
	<path d="M306.589,230.6l-25.402-25.422c-6.555-6.56-18.489-11.506-27.761-11.506h-66.353c-12.195,0-22.116,9.568-22.116,21.329
		c0,11.764,9.921,21.334,22.116,21.334h6.818c-2.402,0.861-5.002,1.318-6.867,1.05l-55.271-7.903
		c-8.164-1.167-19.826,0.458-26.141,6.778c-3.46,3.459-4.925,8.146-4.019,12.857c1.123,5.843,5.723,10.89,12.621,13.85
		l56.989,24.442c8.122,3.483,20.704,4.49,29.26,2.345l21.782-5.449c7.059-1.766,17.804-5.466,24.461-8.423l3.36-1.491
		c2.14-0.955,6.233-0.098,7.818,1.635l22.928,25.051c1.973,2.154,4.672,3.248,7.38,3.248c2.411,0,4.83-0.867,6.749-2.623
		c4.073-3.729,4.353-10.055,0.625-14.129l-22.927-25.05c-7.438-8.127-20.638-10.881-30.694-6.409l-3.357,1.49
		c-5.578,2.477-15.285,5.82-21.197,7.299l-21.788,5.451c-4.354,1.091-12.382,0.448-16.517-1.325l-43.984-18.864l49.091,7.019
		c9.664,1.379,22.15-2.784,29.053-9.691l5.509-5.515c7.454-7.456,5.74-14.339,4.658-16.952c-1.083-2.613-4.738-8.69-15.279-8.69
		h-21.062c-1.313,0-2.116-0.863-2.116-1.334c0-0.469,0.804-1.329,2.116-1.329h66.353c4.024,0,10.768,2.795,13.613,5.643
		l25.403,25.422c3.901,3.905,10.234,3.908,14.142,0.005C310.491,240.838,310.493,234.506,306.589,230.6z"/>
	<path d="M144.56,94.512c0-11.762-9.922-21.33-22.118-21.33h-6.82c2.402-0.862,5.006-1.321,6.87-1.051l55.269,7.903
		c8.162,1.166,19.827-0.459,26.144-6.78c3.459-3.458,4.924-8.145,4.019-12.855c-1.123-5.842-5.723-10.891-12.622-13.852
		l-56.99-24.441c-8.117-3.479-20.696-4.485-29.258-2.343l-21.778,5.448c-7.048,1.762-17.794,5.462-24.469,8.425l-3.353,1.491
		c-2.144,0.952-6.238,0.096-7.822-1.636L28.701,8.44c-3.73-4.073-10.056-4.353-14.129-0.625c-4.073,3.729-4.353,10.055-0.625,14.129
		l22.93,25.052c7.436,8.123,20.63,10.878,30.696,6.409l3.353-1.49c5.59-2.482,15.297-5.825,21.199-7.3l21.783-5.45
		c4.362-1.09,12.39-0.448,16.521,1.323l43.989,18.865l-49.097-7.021c-9.662-1.382-22.152,2.784-29.053,9.691l-5.508,5.514
		c-7.456,7.455-5.743,14.339-4.66,16.953c1.082,2.613,4.738,8.692,15.281,8.692h21.059c1.314,0,2.118,0.861,2.118,1.33
		c0,0.47-0.804,1.331-2.118,1.331H56.088c-4.024,0-10.766-2.794-13.609-5.641L17.074,64.778c-3.904-3.907-10.236-3.909-14.143-0.006
		c-3.907,3.904-3.909,10.235-0.006,14.143l25.403,25.423c6.553,6.559,18.486,11.505,27.759,11.505h66.354
		C134.638,115.843,144.56,106.274,144.56,94.512z"/>
	<path d="M150.114,117.671c-20.45,0-37.087,16.637-37.087,37.087c0,20.449,16.637,37.086,37.087,37.086
		c20.449,0,37.086-16.637,37.086-37.086C187.199,134.308,170.563,117.671,150.114,117.671z M150.114,171.844
		c-9.422,0-17.087-7.665-17.087-17.086c0-9.422,7.665-17.087,17.087-17.087c9.421,0,17.086,7.665,17.086,17.087
		C167.199,164.179,159.534,171.844,150.114,171.844z"/>
</g>
<g>
</g>
<g>
</g>
<g>
</g>
<g>
</g>
<g>
</g>
<g>
</g>
<g>
</g>
<g>
</g>
<g>
</g>
<g>
</g>
<g>
</g>
<g>
</g>
<g>
</g>
<g>
</g>
<g>
</g>
</svg>
